<svg height="100" viewBox="0 0 24 37" width="100" xmlns="http://www.w3.org/2000/svg"><g fill-rule="evenodd"><path d="m6.5851 11.2933c-3.052 0-5.549-2.497-5.549-5.549 0-3.051 2.497-5.548 5.549-5.548h11.053c3.051 0 5.548 2.497 5.548 5.548 0 3.052-2.497 5.549-5.548 5.549z"/><path d="m6.4382 23.9957h5.649v-11.1h-5.649c-1.523 0-2.911.624-3.917 1.63s-1.63 2.395-1.63 3.923c0 3.05 2.496 5.547 5.547 5.547"/><path d="m18.1757 13.0093c-3.064 0-5.549 2.484-5.549 5.549 0 3.064 2.485 5.548 5.549 5.548s5.549-2.484 5.549-5.548c0-3.065-2.485-5.549-5.549-5.549"/><path d="m12.0779 25.5785h-5.748v.011c-2.966.111-5.338 2.544-5.338 5.538 0 3.064 2.484 5.548 5.548 5.548 2.969 0 5.387-2.334 5.535-5.266h.003v-.063c.003-.073.011-.145.011-.219s-.008-.146-.011-.22z"/></g></svg>