<svg xmlns="http://www.w3.org/2000/svg" viewBox="0 0 434 434"><defs><style>.cls-1{fill:#fff;stroke:#231f20;stroke-miterlimit:10;}.cls-2{fill:#f37021;}</style></defs><title>logo</title><g id="Layer_2" data-name="Layer 2"><g id="Layer_1-2" data-name="Layer 1"><rect class="cls-1" x="0.5" y="0.5" width="433" height="433"/><path class="cls-2" d="M150.39,361.35l-17.75-.18L94.39,289c-28-52.81-38.16-72.31-38-72.73S75.54,183.46,98.54,144l41.83-71.71,60.52,0c33.28,0,69.5.14,80.49.26l20,.21L339.61,145c28,52.9,38.16,72.3,38,72.73S358.46,250.55,335.46,290l-41.83,71.71-62.74-.09c-34.51,0-70.74-.16-80.5-.25Zm178.09-76.28c21.66-37.14,39.38-67.7,39.38-67.9s-16.11-30.75-35.8-67.89L296.27,81.74,286,81.49c-5.63-.14-39.69-.21-75.69-.17l-65.46.08-39.37,67.54c-21.66,37.14-39.38,67.7-39.38,67.89s16.11,30.74,35.8,67.89l35.79,67.54,7.32.18c4,.1,38.09.18,75.69.17h68.37Zm-55.08,49a7.7,7.7,0,0,1-2.57-1.78c-.76-.82-11-19.84-27.57-51.1-14.51-27.39-26.46-49.8-26.58-49.79S203.33,254,187.25,281.58s-29.57,50.48-30,50.86a6.81,6.81,0,0,1-9.9-.72c-.31-.41-13.56-25.27-29.44-55.25s-29.15-54.89-29.47-55.36c-1.65-2.38-1.77-4.87-.38-7.71.55-1.13,15.41-26.74,33-56.91,29-49.59,32.16-54.95,33.49-55.89l1.47-1L219,99.48c44.13-.06,63.34,0,64.3.28a7.89,7.89,0,0,1,2.69,1.63c1,1,7.68,13.29,29.91,55.26,15.73,29.71,29.11,55,29.73,56.2,1.6,3.09,1.72,5.14.45,7.47-.53,1-15.31,26.36-32.84,56.4-18.83,32.29-32.37,55.13-33.09,55.87a7,7,0,0,1-4.64,2,8.4,8.4,0,0,1-2.06-.5ZM181.07,265l28-48-25-47.14-25.47-48.06c-.47-.91-1,0-28.47,47.09-15.4,26.4-28,48.13-28,48.28,0,.4,50.54,95.78,50.76,95.79s12.78-21.59,28.17-48Zm122.5,1c15.09-25.85,27.64-47.43,27.9-48,.47-.93-.21-2.25-26.89-52.59L277.21,113.8H226.93c-27.66,0-51.7-.1-53.42-.22-1.95-.14-3.14-.1-3.14.11s11.9,22.77,26.43,50.19,26.57,50.2,26.74,50.63c.26.66,46.55,88.16,50.61,95.66a14.27,14.27,0,0,0,1.76,2.82c.13,0,12.57-21.15,27.66-47Z"/></g></g></svg>